<?xml version="1.0" encoding="utf-8"?>
<!-- Generator: Adobe Illustrator 19.2.0, SVG Export Plug-In . SVG Version: 6.00 Build 0)  -->
<svg version="1.1" id="Layer_1" xmlns="http://www.w3.org/2000/svg" xmlns:xlink="http://www.w3.org/1999/xlink" x="0px" y="0px"
	 viewBox="0 0 300 300" style="enable-background:new 0 0 300 300;" xml:space="preserve">
<style type="text/css">
	.st0{clip-path:url(#SVGID_2_);}
	.st1{clip-path:url(#SVGID_2_);fill:#FFFFFF;}
	.st2{clip-path:url(#SVGID_4_);fill:#FFFFFF;}
	.st3{clip-path:url(#SVGID_6_);fill:#3AB676;}
	.st4{clip-path:url(#SVGID_6_);fill:#FFFFFF;}
	.st5{clip-path:url(#SVGID_6_);}
	.st6{clip-path:url(#SVGID_8_);fill:#FFFFFF;}
	.st7{clip-path:url(#SVGID_10_);}
	.st8{clip-path:url(#SVGID_12_);fill:#FFFFFF;}
	.st9{clip-path:url(#SVGID_14_);}
	.st10{clip-path:url(#SVGID_16_);}
	.st11{clip-path:url(#SVGID_18_);fill:#3AB676;}
	.st12{clip-path:url(#SVGID_18_);}
	.st13{clip-path:url(#SVGID_20_);fill:#3AB676;}
	.st14{clip-path:url(#SVGID_22_);fill:#FFFFFF;}
	.st15{clip-path:url(#SVGID_22_);}
	.st16{clip-path:url(#SVGID_24_);fill:#FFFFFF;}
</style>
<g id="InsideSales.com_Stack_Green">
	<g>
		<defs>
			<rect id="SVGID_5_" width="300" height="300"/>
		</defs>
		<clipPath id="SVGID_2_">
			<use xlink:href="#SVGID_5_"  style="overflow:visible;"/>
		</clipPath>
		<rect style="clip-path:url(#SVGID_2_);fill:#3AB676;" width="300" height="300"/>
		<rect x="36.1" y="47.2" class="st1" width="5.3" height="47.1"/>
		<polygon class="st1" points="51.9,47.2 56.9,47.2 86.5,84.9 86.5,47.2 91.7,47.2 91.7,94.2 87.4,94.2 57.1,55.6 57.1,94.2 
			51.9,94.2 		"/>
		<g class="st0">
			<defs>
				<rect id="SVGID_7_" width="300" height="300"/>
			</defs>
			<clipPath id="SVGID_4_">
				<use xlink:href="#SVGID_7_"  style="overflow:visible;"/>
			</clipPath>
			<path class="st2" d="M98.5,87.4l3.3-3.9c4.9,4.4,9.6,6.7,16.1,6.7c6.3,0,10.5-3.4,10.5-8V82c0-4.4-2.4-6.9-12.2-8.9
				c-10.8-2.4-15.8-5.8-15.8-13.6v-0.1c0-7.4,6.5-12.8,15.5-12.8c6.9,0,11.8,1.9,16.5,5.8l-3.1,4.1c-4.4-3.6-8.7-5.1-13.6-5.1
				c-6.1,0-10,3.4-10,7.6V59c0,4.4,2.4,6.9,12.8,9.1c10.5,2.3,15.3,6.1,15.3,13.3v0.1c0,8.1-6.7,13.3-16.1,13.3
				C110.3,94.9,104.2,92.4,98.5,87.4"/>
			<rect x="141.8" y="47.2" class="st2" width="5.3" height="47.1"/>
			<path class="st2" d="M157.5,47.2h16.3c14.8,0,25,10.2,25,23.4v0.1c0,13.2-10.2,23.5-25,23.5h-16.3V47.2z M173.8,89.3
				c11.9,0,19.5-8.1,19.5-18.5v-0.1c0-10.4-7.6-18.6-19.5-18.6h-11v37.2H173.8z"/>
			<polygon class="st2" points="206.7,47.2 240.7,47.2 240.7,52 212,52 212,68.1 237.7,68.1 237.7,72.9 212,72.9 212,89.4 
				241.1,89.4 241.1,94.2 206.7,94.2 			"/>
			<path class="st2" d="M31.4,142.2l6.1-7.3c4.2,3.5,8.7,5.7,14.1,5.7c4.2,0,6.8-1.7,6.8-4.4V136c0-2.6-1.6-4-9.5-6
				c-9.5-2.4-15.6-5-15.6-14.4v-0.1c0-8.5,6.9-14.2,16.5-14.2c6.9,0,12.7,2.2,17.5,6l-5.4,7.8c-4.2-2.9-8.3-4.6-12.2-4.6
				s-6.1,1.8-6.1,4.1v0.1c0,3.1,2,4.1,10.2,6.2c9.5,2.5,14.9,5.9,14.9,14.1v0.1c0,9.3-7.1,14.6-17.3,14.6
				C44.3,149.7,37.1,147.2,31.4,142.2"/>
			<path class="st2" d="M91.1,101.6h9.5l20.2,47.4H110l-4.3-10.6H85.8L81.5,149H71L91.1,101.6z M102,129.3l-6.3-15.3l-6.3,15.3H102z
				"/>
			<polygon class="st2" points="126.4,102 136.8,102 136.8,139.6 160.3,139.6 160.3,149 126.4,149 			"/>
			<polygon class="st2" points="166.4,102 201.9,102 201.9,111.2 176.7,111.2 176.7,120.7 198.9,120.7 198.9,129.9 176.7,129.9 
				176.7,139.8 202.2,139.8 202.2,149 166.4,149 			"/>
			<path class="st2" d="M206.5,142.2l6.1-7.3c4.2,3.5,8.7,5.7,14.1,5.7c4.2,0,6.8-1.7,6.8-4.4V136c0-2.6-1.6-4-9.5-6
				c-9.5-2.4-15.6-5-15.6-14.4v-0.1c0-8.5,6.9-14.2,16.5-14.2c6.9,0,12.7,2.2,17.5,6l-5.4,7.8c-4.2-2.9-8.3-4.6-12.2-4.6
				c-4,0-6.1,1.8-6.1,4.1v0.1c0,3.1,2,4.1,10.2,6.2c9.5,2.5,14.9,5.9,14.9,14.1v0.1c0,9.3-7.1,14.6-17.3,14.6
				C219.4,149.7,212.2,147.2,206.5,142.2"/>
			<rect x="34.2" y="196.8" class="st2" width="6.2" height="7.1"/>
			<path class="st2" d="M44,180.4v-0.1C44,167,54,156,67.8,156c8.5,0,13.6,3,18.4,7.5l-3.6,3.9c-4-3.8-8.4-6.5-14.8-6.5
				c-10.4,0-18.2,8.5-18.2,19.3v0.1c0,10.9,7.9,19.4,18.2,19.4c6.5,0,10.7-2.5,15.2-6.8l3.5,3.4c-4.9,5-10.3,8.3-18.8,8.3
				C54,204.6,44,193.9,44,180.4"/>
			<path class="st2" d="M88.9,180.4v-0.1c0-13,9.7-24.3,24.1-24.3c14.3,0,23.9,11.2,23.9,24.2c0.1,0.1,0.1,0.1,0,0.1
				c0,13-9.7,24.3-24.1,24.3S88.9,193.4,88.9,180.4 M131.4,180.4v-0.1c0-10.7-7.8-19.4-18.6-19.4s-18.4,8.6-18.4,19.3v0.1
				c0,10.7,7.8,19.4,18.6,19.4S131.4,191.1,131.4,180.4"/>
			<polygon class="st2" points="144.4,156.8 149.8,156.8 167,182.4 184.1,156.8 189.5,156.8 189.5,203.8 184.2,203.8 184.2,165.7 
				167,190.9 166.8,190.9 149.6,165.8 149.6,203.8 144.4,203.8 			"/>
		</g>
	</g>
</g>
</svg>
